<?xml version="1.0" standalone="no"?>
<svg xmlns="http://www.w3.org/2000/svg" version="1.1" width="255" height="255">
	<!-- Created with https://api.qrserver.com (QR Code API, see goQR.me/api for information) -->
	<title>QR Code</title>
	<desc>BEGIN:VCARD
VERSION:2.1
FN:Mario Kleinsasser
N:Kleinsasser;Mario
EMAIL;HOME;INTERNET:mario.kleinsasser@gmail.com
URL:https://kleinsasserm.github.io
END:VCARD
</desc>
	<rect style="fill:rgb(255, 255, 255);fill-opacity:1" x="0" y="0" width="255" height="255" />
	<g id="elements">
		<path style="fill:rgb(0, 0, 0)" d="M 5,5 l 5,0 0,5 -5,0 z M 10,5 l 5,0 0,5 -5,0 z M 15,5 l 5,0 0,5 -5,0 z M 20,5 l 5,0 0,5 -5,0 z M 25,5 l 5,0 0,5 -5,0 z M 30,5 l 5,0 0,5 -5,0 z M 35,5 l 5,0 0,5 -5,0 z M 65,5 l 5,0 0,5 -5,0 z M 75,5 l 5,0 0,5 -5,0 z M 85,5 l 5,0 0,5 -5,0 z M 95,5 l 5,0 0,5 -5,0 z M 100,5 l 5,0 0,5 -5,0 z M 120,5 l 5,0 0,5 -5,0 z M 125,5 l 5,0 0,5 -5,0 z M 130,5 l 5,0 0,5 -5,0 z M 135,5 l 5,0 0,5 -5,0 z M 165,5 l 5,0 0,5 -5,0 z M 205,5 l 5,0 0,5 -5,0 z M 215,5 l 5,0 0,5 -5,0 z M 220,5 l 5,0 0,5 -5,0 z M 225,5 l 5,0 0,5 -5,0 z M 230,5 l 5,0 0,5 -5,0 z M 235,5 l 5,0 0,5 -5,0 z M 240,5 l 5,0 0,5 -5,0 z M 245,5 l 5,0 0,5 -5,0 z M 5,10 l 5,0 0,5 -5,0 z M 35,10 l 5,0 0,5 -5,0 z M 45,10 l 5,0 0,5 -5,0 z M 50,10 l 5,0 0,5 -5,0 z M 65,10 l 5,0 0,5 -5,0 z M 95,10 l 5,0 0,5 -5,0 z M 100,10 l 5,0 0,5 -5,0 z M 105,10 l 5,0 0,5 -5,0 z M 110,10 l 5,0 0,5 -5,0 z M 120,10 l 5,0 0,5 -5,0 z M 130,10 l 5,0 0,5 -5,0 z M 145,10 l 5,0 0,5 -5,0 z M 160,10 l 5,0 0,5 -5,0 z M 165,10 l 5,0 0,5 -5,0 z M 170,10 l 5,0 0,5 -5,0 z M 175,10 l 5,0 0,5 -5,0 z M 180,10 l 5,0 0,5 -5,0 z M 190,10 l 5,0 0,5 -5,0 z M 195,10 l 5,0 0,5 -5,0 z M 200,10 l 5,0 0,5 -5,0 z M 205,10 l 5,0 0,5 -5,0 z M 215,10 l 5,0 0,5 -5,0 z M 245,10 l 5,0 0,5 -5,0 z M 5,15 l 5,0 0,5 -5,0 z M 15,15 l 5,0 0,5 -5,0 z M 20,15 l 5,0 0,5 -5,0 z M 25,15 l 5,0 0,5 -5,0 z M 35,15 l 5,0 0,5 -5,0 z M 55,15 l 5,0 0,5 -5,0 z M 60,15 l 5,0 0,5 -5,0 z M 70,15 l 5,0 0,5 -5,0 z M 85,15 l 5,0 0,5 -5,0 z M 90,15 l 5,0 0,5 -5,0 z M 95,15 l 5,0 0,5 -5,0 z M 105,15 l 5,0 0,5 -5,0 z M 115,15 l 5,0 0,5 -5,0 z M 120,15 l 5,0 0,5 -5,0 z M 125,15 l 5,0 0,5 -5,0 z M 135,15 l 5,0 0,5 -5,0 z M 145,15 l 5,0 0,5 -5,0 z M 160,15 l 5,0 0,5 -5,0 z M 165,15 l 5,0 0,5 -5,0 z M 175,15 l 5,0 0,5 -5,0 z M 200,15 l 5,0 0,5 -5,0 z M 205,15 l 5,0 0,5 -5,0 z M 215,15 l 5,0 0,5 -5,0 z M 225,15 l 5,0 0,5 -5,0 z M 230,15 l 5,0 0,5 -5,0 z M 235,15 l 5,0 0,5 -5,0 z M 245,15 l 5,0 0,5 -5,0 z M 5,20 l 5,0 0,5 -5,0 z M 15,20 l 5,0 0,5 -5,0 z M 20,20 l 5,0 0,5 -5,0 z M 25,20 l 5,0 0,5 -5,0 z M 35,20 l 5,0 0,5 -5,0 z M 45,20 l 5,0 0,5 -5,0 z M 50,20 l 5,0 0,5 -5,0 z M 55,20 l 5,0 0,5 -5,0 z M 60,20 l 5,0 0,5 -5,0 z M 80,20 l 5,0 0,5 -5,0 z M 95,20 l 5,0 0,5 -5,0 z M 110,20 l 5,0 0,5 -5,0 z M 115,20 l 5,0 0,5 -5,0 z M 125,20 l 5,0 0,5 -5,0 z M 130,20 l 5,0 0,5 -5,0 z M 135,20 l 5,0 0,5 -5,0 z M 140,20 l 5,0 0,5 -5,0 z M 170,20 l 5,0 0,5 -5,0 z M 180,20 l 5,0 0,5 -5,0 z M 185,20 l 5,0 0,5 -5,0 z M 200,20 l 5,0 0,5 -5,0 z M 215,20 l 5,0 0,5 -5,0 z M 225,20 l 5,0 0,5 -5,0 z M 230,20 l 5,0 0,5 -5,0 z M 235,20 l 5,0 0,5 -5,0 z M 245,20 l 5,0 0,5 -5,0 z M 5,25 l 5,0 0,5 -5,0 z M 15,25 l 5,0 0,5 -5,0 z M 20,25 l 5,0 0,5 -5,0 z M 25,25 l 5,0 0,5 -5,0 z M 35,25 l 5,0 0,5 -5,0 z M 50,25 l 5,0 0,5 -5,0 z M 55,25 l 5,0 0,5 -5,0 z M 70,25 l 5,0 0,5 -5,0 z M 85,25 l 5,0 0,5 -5,0 z M 90,25 l 5,0 0,5 -5,0 z M 95,25 l 5,0 0,5 -5,0 z M 100,25 l 5,0 0,5 -5,0 z M 105,25 l 5,0 0,5 -5,0 z M 115,25 l 5,0 0,5 -5,0 z M 120,25 l 5,0 0,5 -5,0 z M 125,25 l 5,0 0,5 -5,0 z M 130,25 l 5,0 0,5 -5,0 z M 135,25 l 5,0 0,5 -5,0 z M 140,25 l 5,0 0,5 -5,0 z M 145,25 l 5,0 0,5 -5,0 z M 150,25 l 5,0 0,5 -5,0 z M 155,25 l 5,0 0,5 -5,0 z M 165,25 l 5,0 0,5 -5,0 z M 180,25 l 5,0 0,5 -5,0 z M 215,25 l 5,0 0,5 -5,0 z M 225,25 l 5,0 0,5 -5,0 z M 230,25 l 5,0 0,5 -5,0 z M 235,25 l 5,0 0,5 -5,0 z M 245,25 l 5,0 0,5 -5,0 z M 5,30 l 5,0 0,5 -5,0 z M 35,30 l 5,0 0,5 -5,0 z M 45,30 l 5,0 0,5 -5,0 z M 55,30 l 5,0 0,5 -5,0 z M 65,30 l 5,0 0,5 -5,0 z M 70,30 l 5,0 0,5 -5,0 z M 80,30 l 5,0 0,5 -5,0 z M 85,30 l 5,0 0,5 -5,0 z M 95,30 l 5,0 0,5 -5,0 z M 105,30 l 5,0 0,5 -5,0 z M 115,30 l 5,0 0,5 -5,0 z M 135,30 l 5,0 0,5 -5,0 z M 140,30 l 5,0 0,5 -5,0 z M 155,30 l 5,0 0,5 -5,0 z M 160,30 l 5,0 0,5 -5,0 z M 165,30 l 5,0 0,5 -5,0 z M 170,30 l 5,0 0,5 -5,0 z M 175,30 l 5,0 0,5 -5,0 z M 195,30 l 5,0 0,5 -5,0 z M 215,30 l 5,0 0,5 -5,0 z M 245,30 l 5,0 0,5 -5,0 z M 5,35 l 5,0 0,5 -5,0 z M 10,35 l 5,0 0,5 -5,0 z M 15,35 l 5,0 0,5 -5,0 z M 20,35 l 5,0 0,5 -5,0 z M 25,35 l 5,0 0,5 -5,0 z M 30,35 l 5,0 0,5 -5,0 z M 35,35 l 5,0 0,5 -5,0 z M 45,35 l 5,0 0,5 -5,0 z M 55,35 l 5,0 0,5 -5,0 z M 65,35 l 5,0 0,5 -5,0 z M 75,35 l 5,0 0,5 -5,0 z M 85,35 l 5,0 0,5 -5,0 z M 95,35 l 5,0 0,5 -5,0 z M 105,35 l 5,0 0,5 -5,0 z M 115,35 l 5,0 0,5 -5,0 z M 125,35 l 5,0 0,5 -5,0 z M 135,35 l 5,0 0,5 -5,0 z M 145,35 l 5,0 0,5 -5,0 z M 155,35 l 5,0 0,5 -5,0 z M 165,35 l 5,0 0,5 -5,0 z M 175,35 l 5,0 0,5 -5,0 z M 185,35 l 5,0 0,5 -5,0 z M 195,35 l 5,0 0,5 -5,0 z M 205,35 l 5,0 0,5 -5,0 z M 215,35 l 5,0 0,5 -5,0 z M 220,35 l 5,0 0,5 -5,0 z M 225,35 l 5,0 0,5 -5,0 z M 230,35 l 5,0 0,5 -5,0 z M 235,35 l 5,0 0,5 -5,0 z M 240,35 l 5,0 0,5 -5,0 z M 245,35 l 5,0 0,5 -5,0 z M 65,40 l 5,0 0,5 -5,0 z M 70,40 l 5,0 0,5 -5,0 z M 85,40 l 5,0 0,5 -5,0 z M 90,40 l 5,0 0,5 -5,0 z M 95,40 l 5,0 0,5 -5,0 z M 100,40 l 5,0 0,5 -5,0 z M 105,40 l 5,0 0,5 -5,0 z M 110,40 l 5,0 0,5 -5,0 z M 115,40 l 5,0 0,5 -5,0 z M 135,40 l 5,0 0,5 -5,0 z M 150,40 l 5,0 0,5 -5,0 z M 175,40 l 5,0 0,5 -5,0 z M 185,40 l 5,0 0,5 -5,0 z M 190,40 l 5,0 0,5 -5,0 z M 195,40 l 5,0 0,5 -5,0 z M 5,45 l 5,0 0,5 -5,0 z M 10,45 l 5,0 0,5 -5,0 z M 15,45 l 5,0 0,5 -5,0 z M 20,45 l 5,0 0,5 -5,0 z M 25,45 l 5,0 0,5 -5,0 z M 35,45 l 5,0 0,5 -5,0 z M 40,45 l 5,0 0,5 -5,0 z M 45,45 l 5,0 0,5 -5,0 z M 50,45 l 5,0 0,5 -5,0 z M 70,45 l 5,0 0,5 -5,0 z M 75,45 l 5,0 0,5 -5,0 z M 80,45 l 5,0 0,5 -5,0 z M 85,45 l 5,0 0,5 -5,0 z M 110,45 l 5,0 0,5 -5,0 z M 115,45 l 5,0 0,5 -5,0 z M 120,45 l 5,0 0,5 -5,0 z M 125,45 l 5,0 0,5 -5,0 z M 130,45 l 5,0 0,5 -5,0 z M 135,45 l 5,0 0,5 -5,0 z M 140,45 l 5,0 0,5 -5,0 z M 145,45 l 5,0 0,5 -5,0 z M 155,45 l 5,0 0,5 -5,0 z M 170,45 l 5,0 0,5 -5,0 z M 180,45 l 5,0 0,5 -5,0 z M 195,45 l 5,0 0,5 -5,0 z M 200,45 l 5,0 0,5 -5,0 z M 210,45 l 5,0 0,5 -5,0 z M 220,45 l 5,0 0,5 -5,0 z M 230,45 l 5,0 0,5 -5,0 z M 240,45 l 5,0 0,5 -5,0 z M 5,50 l 5,0 0,5 -5,0 z M 10,50 l 5,0 0,5 -5,0 z M 15,50 l 5,0 0,5 -5,0 z M 25,50 l 5,0 0,5 -5,0 z M 30,50 l 5,0 0,5 -5,0 z M 45,50 l 5,0 0,5 -5,0 z M 50,50 l 5,0 0,5 -5,0 z M 65,50 l 5,0 0,5 -5,0 z M 80,50 l 5,0 0,5 -5,0 z M 100,50 l 5,0 0,5 -5,0 z M 110,50 l 5,0 0,5 -5,0 z M 120,50 l 5,0 0,5 -5,0 z M 125,50 l 5,0 0,5 -5,0 z M 130,50 l 5,0 0,5 -5,0 z M 145,50 l 5,0 0,5 -5,0 z M 150,50 l 5,0 0,5 -5,0 z M 155,50 l 5,0 0,5 -5,0 z M 160,50 l 5,0 0,5 -5,0 z M 170,50 l 5,0 0,5 -5,0 z M 180,50 l 5,0 0,5 -5,0 z M 185,50 l 5,0 0,5 -5,0 z M 195,50 l 5,0 0,5 -5,0 z M 200,50 l 5,0 0,5 -5,0 z M 205,50 l 5,0 0,5 -5,0 z M 210,50 l 5,0 0,5 -5,0 z M 220,50 l 5,0 0,5 -5,0 z M 235,50 l 5,0 0,5 -5,0 z M 245,50 l 5,0 0,5 -5,0 z M 15,55 l 5,0 0,5 -5,0 z M 25,55 l 5,0 0,5 -5,0 z M 35,55 l 5,0 0,5 -5,0 z M 45,55 l 5,0 0,5 -5,0 z M 50,55 l 5,0 0,5 -5,0 z M 55,55 l 5,0 0,5 -5,0 z M 70,55 l 5,0 0,5 -5,0 z M 75,55 l 5,0 0,5 -5,0 z M 90,55 l 5,0 0,5 -5,0 z M 125,55 l 5,0 0,5 -5,0 z M 145,55 l 5,0 0,5 -5,0 z M 155,55 l 5,0 0,5 -5,0 z M 160,55 l 5,0 0,5 -5,0 z M 165,55 l 5,0 0,5 -5,0 z M 170,55 l 5,0 0,5 -5,0 z M 175,55 l 5,0 0,5 -5,0 z M 180,55 l 5,0 0,5 -5,0 z M 200,55 l 5,0 0,5 -5,0 z M 205,55 l 5,0 0,5 -5,0 z M 220,55 l 5,0 0,5 -5,0 z M 225,55 l 5,0 0,5 -5,0 z M 240,55 l 5,0 0,5 -5,0 z M 245,55 l 5,0 0,5 -5,0 z M 10,60 l 5,0 0,5 -5,0 z M 25,60 l 5,0 0,5 -5,0 z M 40,60 l 5,0 0,5 -5,0 z M 60,60 l 5,0 0,5 -5,0 z M 65,60 l 5,0 0,5 -5,0 z M 75,60 l 5,0 0,5 -5,0 z M 85,60 l 5,0 0,5 -5,0 z M 125,60 l 5,0 0,5 -5,0 z M 145,60 l 5,0 0,5 -5,0 z M 185,60 l 5,0 0,5 -5,0 z M 195,60 l 5,0 0,5 -5,0 z M 205,60 l 5,0 0,5 -5,0 z M 215,60 l 5,0 0,5 -5,0 z M 225,60 l 5,0 0,5 -5,0 z M 235,60 l 5,0 0,5 -5,0 z M 10,65 l 5,0 0,5 -5,0 z M 25,65 l 5,0 0,5 -5,0 z M 35,65 l 5,0 0,5 -5,0 z M 40,65 l 5,0 0,5 -5,0 z M 70,65 l 5,0 0,5 -5,0 z M 75,65 l 5,0 0,5 -5,0 z M 90,65 l 5,0 0,5 -5,0 z M 100,65 l 5,0 0,5 -5,0 z M 110,65 l 5,0 0,5 -5,0 z M 120,65 l 5,0 0,5 -5,0 z M 125,65 l 5,0 0,5 -5,0 z M 130,65 l 5,0 0,5 -5,0 z M 135,65 l 5,0 0,5 -5,0 z M 150,65 l 5,0 0,5 -5,0 z M 160,65 l 5,0 0,5 -5,0 z M 180,65 l 5,0 0,5 -5,0 z M 185,65 l 5,0 0,5 -5,0 z M 195,65 l 5,0 0,5 -5,0 z M 205,65 l 5,0 0,5 -5,0 z M 215,65 l 5,0 0,5 -5,0 z M 220,65 l 5,0 0,5 -5,0 z M 230,65 l 5,0 0,5 -5,0 z M 235,65 l 5,0 0,5 -5,0 z M 240,65 l 5,0 0,5 -5,0 z M 5,70 l 5,0 0,5 -5,0 z M 15,70 l 5,0 0,5 -5,0 z M 20,70 l 5,0 0,5 -5,0 z M 25,70 l 5,0 0,5 -5,0 z M 50,70 l 5,0 0,5 -5,0 z M 80,70 l 5,0 0,5 -5,0 z M 95,70 l 5,0 0,5 -5,0 z M 110,70 l 5,0 0,5 -5,0 z M 120,70 l 5,0 0,5 -5,0 z M 125,70 l 5,0 0,5 -5,0 z M 130,70 l 5,0 0,5 -5,0 z M 150,70 l 5,0 0,5 -5,0 z M 155,70 l 5,0 0,5 -5,0 z M 165,70 l 5,0 0,5 -5,0 z M 185,70 l 5,0 0,5 -5,0 z M 190,70 l 5,0 0,5 -5,0 z M 200,70 l 5,0 0,5 -5,0 z M 210,70 l 5,0 0,5 -5,0 z M 215,70 l 5,0 0,5 -5,0 z M 220,70 l 5,0 0,5 -5,0 z M 225,70 l 5,0 0,5 -5,0 z M 230,70 l 5,0 0,5 -5,0 z M 235,70 l 5,0 0,5 -5,0 z M 245,70 l 5,0 0,5 -5,0 z M 10,75 l 5,0 0,5 -5,0 z M 15,75 l 5,0 0,5 -5,0 z M 35,75 l 5,0 0,5 -5,0 z M 40,75 l 5,0 0,5 -5,0 z M 45,75 l 5,0 0,5 -5,0 z M 55,75 l 5,0 0,5 -5,0 z M 70,75 l 5,0 0,5 -5,0 z M 75,75 l 5,0 0,5 -5,0 z M 90,75 l 5,0 0,5 -5,0 z M 95,75 l 5,0 0,5 -5,0 z M 100,75 l 5,0 0,5 -5,0 z M 120,75 l 5,0 0,5 -5,0 z M 125,75 l 5,0 0,5 -5,0 z M 130,75 l 5,0 0,5 -5,0 z M 165,75 l 5,0 0,5 -5,0 z M 170,75 l 5,0 0,5 -5,0 z M 175,75 l 5,0 0,5 -5,0 z M 185,75 l 5,0 0,5 -5,0 z M 200,75 l 5,0 0,5 -5,0 z M 220,75 l 5,0 0,5 -5,0 z M 230,75 l 5,0 0,5 -5,0 z M 245,75 l 5,0 0,5 -5,0 z M 10,80 l 5,0 0,5 -5,0 z M 15,80 l 5,0 0,5 -5,0 z M 45,80 l 5,0 0,5 -5,0 z M 50,80 l 5,0 0,5 -5,0 z M 55,80 l 5,0 0,5 -5,0 z M 60,80 l 5,0 0,5 -5,0 z M 65,80 l 5,0 0,5 -5,0 z M 70,80 l 5,0 0,5 -5,0 z M 80,80 l 5,0 0,5 -5,0 z M 95,80 l 5,0 0,5 -5,0 z M 110,80 l 5,0 0,5 -5,0 z M 125,80 l 5,0 0,5 -5,0 z M 130,80 l 5,0 0,5 -5,0 z M 135,80 l 5,0 0,5 -5,0 z M 145,80 l 5,0 0,5 -5,0 z M 150,80 l 5,0 0,5 -5,0 z M 155,80 l 5,0 0,5 -5,0 z M 175,80 l 5,0 0,5 -5,0 z M 190,80 l 5,0 0,5 -5,0 z M 195,80 l 5,0 0,5 -5,0 z M 210,80 l 5,0 0,5 -5,0 z M 225,80 l 5,0 0,5 -5,0 z M 230,80 l 5,0 0,5 -5,0 z M 240,80 l 5,0 0,5 -5,0 z M 245,80 l 5,0 0,5 -5,0 z M 5,85 l 5,0 0,5 -5,0 z M 20,85 l 5,0 0,5 -5,0 z M 25,85 l 5,0 0,5 -5,0 z M 35,85 l 5,0 0,5 -5,0 z M 55,85 l 5,0 0,5 -5,0 z M 70,85 l 5,0 0,5 -5,0 z M 80,85 l 5,0 0,5 -5,0 z M 90,85 l 5,0 0,5 -5,0 z M 105,85 l 5,0 0,5 -5,0 z M 120,85 l 5,0 0,5 -5,0 z M 130,85 l 5,0 0,5 -5,0 z M 140,85 l 5,0 0,5 -5,0 z M 145,85 l 5,0 0,5 -5,0 z M 150,85 l 5,0 0,5 -5,0 z M 155,85 l 5,0 0,5 -5,0 z M 165,85 l 5,0 0,5 -5,0 z M 170,85 l 5,0 0,5 -5,0 z M 175,85 l 5,0 0,5 -5,0 z M 185,85 l 5,0 0,5 -5,0 z M 195,85 l 5,0 0,5 -5,0 z M 200,85 l 5,0 0,5 -5,0 z M 210,85 l 5,0 0,5 -5,0 z M 215,85 l 5,0 0,5 -5,0 z M 220,85 l 5,0 0,5 -5,0 z M 230,85 l 5,0 0,5 -5,0 z M 240,85 l 5,0 0,5 -5,0 z M 245,85 l 5,0 0,5 -5,0 z M 10,90 l 5,0 0,5 -5,0 z M 15,90 l 5,0 0,5 -5,0 z M 20,90 l 5,0 0,5 -5,0 z M 30,90 l 5,0 0,5 -5,0 z M 40,90 l 5,0 0,5 -5,0 z M 60,90 l 5,0 0,5 -5,0 z M 65,90 l 5,0 0,5 -5,0 z M 75,90 l 5,0 0,5 -5,0 z M 90,90 l 5,0 0,5 -5,0 z M 110,90 l 5,0 0,5 -5,0 z M 115,90 l 5,0 0,5 -5,0 z M 130,90 l 5,0 0,5 -5,0 z M 140,90 l 5,0 0,5 -5,0 z M 145,90 l 5,0 0,5 -5,0 z M 150,90 l 5,0 0,5 -5,0 z M 165,90 l 5,0 0,5 -5,0 z M 180,90 l 5,0 0,5 -5,0 z M 185,90 l 5,0 0,5 -5,0 z M 200,90 l 5,0 0,5 -5,0 z M 230,90 l 5,0 0,5 -5,0 z M 235,90 l 5,0 0,5 -5,0 z M 10,95 l 5,0 0,5 -5,0 z M 25,95 l 5,0 0,5 -5,0 z M 35,95 l 5,0 0,5 -5,0 z M 45,95 l 5,0 0,5 -5,0 z M 80,95 l 5,0 0,5 -5,0 z M 85,95 l 5,0 0,5 -5,0 z M 95,95 l 5,0 0,5 -5,0 z M 100,95 l 5,0 0,5 -5,0 z M 105,95 l 5,0 0,5 -5,0 z M 120,95 l 5,0 0,5 -5,0 z M 135,95 l 5,0 0,5 -5,0 z M 155,95 l 5,0 0,5 -5,0 z M 160,95 l 5,0 0,5 -5,0 z M 165,95 l 5,0 0,5 -5,0 z M 170,95 l 5,0 0,5 -5,0 z M 175,95 l 5,0 0,5 -5,0 z M 180,95 l 5,0 0,5 -5,0 z M 220,95 l 5,0 0,5 -5,0 z M 225,95 l 5,0 0,5 -5,0 z M 235,95 l 5,0 0,5 -5,0 z M 5,100 l 5,0 0,5 -5,0 z M 15,100 l 5,0 0,5 -5,0 z M 20,100 l 5,0 0,5 -5,0 z M 30,100 l 5,0 0,5 -5,0 z M 40,100 l 5,0 0,5 -5,0 z M 55,100 l 5,0 0,5 -5,0 z M 60,100 l 5,0 0,5 -5,0 z M 70,100 l 5,0 0,5 -5,0 z M 85,100 l 5,0 0,5 -5,0 z M 90,100 l 5,0 0,5 -5,0 z M 95,100 l 5,0 0,5 -5,0 z M 105,100 l 5,0 0,5 -5,0 z M 125,100 l 5,0 0,5 -5,0 z M 140,100 l 5,0 0,5 -5,0 z M 145,100 l 5,0 0,5 -5,0 z M 150,100 l 5,0 0,5 -5,0 z M 170,100 l 5,0 0,5 -5,0 z M 175,100 l 5,0 0,5 -5,0 z M 190,100 l 5,0 0,5 -5,0 z M 205,100 l 5,0 0,5 -5,0 z M 210,100 l 5,0 0,5 -5,0 z M 215,100 l 5,0 0,5 -5,0 z M 220,100 l 5,0 0,5 -5,0 z M 235,100 l 5,0 0,5 -5,0 z M 245,100 l 5,0 0,5 -5,0 z M 5,105 l 5,0 0,5 -5,0 z M 10,105 l 5,0 0,5 -5,0 z M 30,105 l 5,0 0,5 -5,0 z M 35,105 l 5,0 0,5 -5,0 z M 40,105 l 5,0 0,5 -5,0 z M 50,105 l 5,0 0,5 -5,0 z M 60,105 l 5,0 0,5 -5,0 z M 65,105 l 5,0 0,5 -5,0 z M 80,105 l 5,0 0,5 -5,0 z M 95,105 l 5,0 0,5 -5,0 z M 110,105 l 5,0 0,5 -5,0 z M 120,105 l 5,0 0,5 -5,0 z M 125,105 l 5,0 0,5 -5,0 z M 155,105 l 5,0 0,5 -5,0 z M 185,105 l 5,0 0,5 -5,0 z M 195,105 l 5,0 0,5 -5,0 z M 235,105 l 5,0 0,5 -5,0 z M 240,105 l 5,0 0,5 -5,0 z M 10,110 l 5,0 0,5 -5,0 z M 50,110 l 5,0 0,5 -5,0 z M 70,110 l 5,0 0,5 -5,0 z M 85,110 l 5,0 0,5 -5,0 z M 90,110 l 5,0 0,5 -5,0 z M 95,110 l 5,0 0,5 -5,0 z M 100,110 l 5,0 0,5 -5,0 z M 105,110 l 5,0 0,5 -5,0 z M 115,110 l 5,0 0,5 -5,0 z M 145,110 l 5,0 0,5 -5,0 z M 150,110 l 5,0 0,5 -5,0 z M 155,110 l 5,0 0,5 -5,0 z M 165,110 l 5,0 0,5 -5,0 z M 180,110 l 5,0 0,5 -5,0 z M 190,110 l 5,0 0,5 -5,0 z M 200,110 l 5,0 0,5 -5,0 z M 210,110 l 5,0 0,5 -5,0 z M 235,110 l 5,0 0,5 -5,0 z M 245,110 l 5,0 0,5 -5,0 z M 25,115 l 5,0 0,5 -5,0 z M 30,115 l 5,0 0,5 -5,0 z M 35,115 l 5,0 0,5 -5,0 z M 40,115 l 5,0 0,5 -5,0 z M 45,115 l 5,0 0,5 -5,0 z M 55,115 l 5,0 0,5 -5,0 z M 60,115 l 5,0 0,5 -5,0 z M 70,115 l 5,0 0,5 -5,0 z M 75,115 l 5,0 0,5 -5,0 z M 80,115 l 5,0 0,5 -5,0 z M 85,115 l 5,0 0,5 -5,0 z M 95,115 l 5,0 0,5 -5,0 z M 105,115 l 5,0 0,5 -5,0 z M 115,115 l 5,0 0,5 -5,0 z M 120,115 l 5,0 0,5 -5,0 z M 125,115 l 5,0 0,5 -5,0 z M 130,115 l 5,0 0,5 -5,0 z M 135,115 l 5,0 0,5 -5,0 z M 140,115 l 5,0 0,5 -5,0 z M 170,115 l 5,0 0,5 -5,0 z M 175,115 l 5,0 0,5 -5,0 z M 180,115 l 5,0 0,5 -5,0 z M 200,115 l 5,0 0,5 -5,0 z M 205,115 l 5,0 0,5 -5,0 z M 210,115 l 5,0 0,5 -5,0 z M 215,115 l 5,0 0,5 -5,0 z M 220,115 l 5,0 0,5 -5,0 z M 225,115 l 5,0 0,5 -5,0 z M 230,115 l 5,0 0,5 -5,0 z M 240,115 l 5,0 0,5 -5,0 z M 10,120 l 5,0 0,5 -5,0 z M 20,120 l 5,0 0,5 -5,0 z M 25,120 l 5,0 0,5 -5,0 z M 45,120 l 5,0 0,5 -5,0 z M 50,120 l 5,0 0,5 -5,0 z M 55,120 l 5,0 0,5 -5,0 z M 60,120 l 5,0 0,5 -5,0 z M 65,120 l 5,0 0,5 -5,0 z M 70,120 l 5,0 0,5 -5,0 z M 85,120 l 5,0 0,5 -5,0 z M 90,120 l 5,0 0,5 -5,0 z M 100,120 l 5,0 0,5 -5,0 z M 105,120 l 5,0 0,5 -5,0 z M 110,120 l 5,0 0,5 -5,0 z M 115,120 l 5,0 0,5 -5,0 z M 135,120 l 5,0 0,5 -5,0 z M 150,120 l 5,0 0,5 -5,0 z M 165,120 l 5,0 0,5 -5,0 z M 175,120 l 5,0 0,5 -5,0 z M 190,120 l 5,0 0,5 -5,0 z M 195,120 l 5,0 0,5 -5,0 z M 200,120 l 5,0 0,5 -5,0 z M 205,120 l 5,0 0,5 -5,0 z M 225,120 l 5,0 0,5 -5,0 z M 235,120 l 5,0 0,5 -5,0 z M 240,120 l 5,0 0,5 -5,0 z M 245,120 l 5,0 0,5 -5,0 z M 5,125 l 5,0 0,5 -5,0 z M 20,125 l 5,0 0,5 -5,0 z M 25,125 l 5,0 0,5 -5,0 z M 35,125 l 5,0 0,5 -5,0 z M 45,125 l 5,0 0,5 -5,0 z M 50,125 l 5,0 0,5 -5,0 z M 75,125 l 5,0 0,5 -5,0 z M 80,125 l 5,0 0,5 -5,0 z M 85,125 l 5,0 0,5 -5,0 z M 90,125 l 5,0 0,5 -5,0 z M 95,125 l 5,0 0,5 -5,0 z M 100,125 l 5,0 0,5 -5,0 z M 105,125 l 5,0 0,5 -5,0 z M 115,125 l 5,0 0,5 -5,0 z M 125,125 l 5,0 0,5 -5,0 z M 135,125 l 5,0 0,5 -5,0 z M 145,125 l 5,0 0,5 -5,0 z M 150,125 l 5,0 0,5 -5,0 z M 155,125 l 5,0 0,5 -5,0 z M 170,125 l 5,0 0,5 -5,0 z M 175,125 l 5,0 0,5 -5,0 z M 195,125 l 5,0 0,5 -5,0 z M 200,125 l 5,0 0,5 -5,0 z M 205,125 l 5,0 0,5 -5,0 z M 215,125 l 5,0 0,5 -5,0 z M 225,125 l 5,0 0,5 -5,0 z M 230,125 l 5,0 0,5 -5,0 z M 235,125 l 5,0 0,5 -5,0 z M 240,125 l 5,0 0,5 -5,0 z M 245,125 l 5,0 0,5 -5,0 z M 10,130 l 5,0 0,5 -5,0 z M 15,130 l 5,0 0,5 -5,0 z M 25,130 l 5,0 0,5 -5,0 z M 45,130 l 5,0 0,5 -5,0 z M 55,130 l 5,0 0,5 -5,0 z M 60,130 l 5,0 0,5 -5,0 z M 80,130 l 5,0 0,5 -5,0 z M 90,130 l 5,0 0,5 -5,0 z M 95,130 l 5,0 0,5 -5,0 z M 115,130 l 5,0 0,5 -5,0 z M 135,130 l 5,0 0,5 -5,0 z M 155,130 l 5,0 0,5 -5,0 z M 160,130 l 5,0 0,5 -5,0 z M 185,130 l 5,0 0,5 -5,0 z M 190,130 l 5,0 0,5 -5,0 z M 200,130 l 5,0 0,5 -5,0 z M 205,130 l 5,0 0,5 -5,0 z M 225,130 l 5,0 0,5 -5,0 z M 230,130 l 5,0 0,5 -5,0 z M 235,130 l 5,0 0,5 -5,0 z M 15,135 l 5,0 0,5 -5,0 z M 25,135 l 5,0 0,5 -5,0 z M 30,135 l 5,0 0,5 -5,0 z M 35,135 l 5,0 0,5 -5,0 z M 40,135 l 5,0 0,5 -5,0 z M 45,135 l 5,0 0,5 -5,0 z M 50,135 l 5,0 0,5 -5,0 z M 70,135 l 5,0 0,5 -5,0 z M 75,135 l 5,0 0,5 -5,0 z M 80,135 l 5,0 0,5 -5,0 z M 90,135 l 5,0 0,5 -5,0 z M 100,135 l 5,0 0,5 -5,0 z M 110,135 l 5,0 0,5 -5,0 z M 115,135 l 5,0 0,5 -5,0 z M 120,135 l 5,0 0,5 -5,0 z M 125,135 l 5,0 0,5 -5,0 z M 130,135 l 5,0 0,5 -5,0 z M 135,135 l 5,0 0,5 -5,0 z M 140,135 l 5,0 0,5 -5,0 z M 145,135 l 5,0 0,5 -5,0 z M 160,135 l 5,0 0,5 -5,0 z M 165,135 l 5,0 0,5 -5,0 z M 170,135 l 5,0 0,5 -5,0 z M 175,135 l 5,0 0,5 -5,0 z M 180,135 l 5,0 0,5 -5,0 z M 195,135 l 5,0 0,5 -5,0 z M 200,135 l 5,0 0,5 -5,0 z M 205,135 l 5,0 0,5 -5,0 z M 210,135 l 5,0 0,5 -5,0 z M 215,135 l 5,0 0,5 -5,0 z M 220,135 l 5,0 0,5 -5,0 z M 225,135 l 5,0 0,5 -5,0 z M 240,135 l 5,0 0,5 -5,0 z M 245,135 l 5,0 0,5 -5,0 z M 20,140 l 5,0 0,5 -5,0 z M 25,140 l 5,0 0,5 -5,0 z M 30,140 l 5,0 0,5 -5,0 z M 40,140 l 5,0 0,5 -5,0 z M 45,140 l 5,0 0,5 -5,0 z M 65,140 l 5,0 0,5 -5,0 z M 75,140 l 5,0 0,5 -5,0 z M 85,140 l 5,0 0,5 -5,0 z M 100,140 l 5,0 0,5 -5,0 z M 145,140 l 5,0 0,5 -5,0 z M 150,140 l 5,0 0,5 -5,0 z M 155,140 l 5,0 0,5 -5,0 z M 160,140 l 5,0 0,5 -5,0 z M 165,140 l 5,0 0,5 -5,0 z M 175,140 l 5,0 0,5 -5,0 z M 190,140 l 5,0 0,5 -5,0 z M 195,140 l 5,0 0,5 -5,0 z M 200,140 l 5,0 0,5 -5,0 z M 205,140 l 5,0 0,5 -5,0 z M 210,140 l 5,0 0,5 -5,0 z M 215,140 l 5,0 0,5 -5,0 z M 225,140 l 5,0 0,5 -5,0 z M 235,140 l 5,0 0,5 -5,0 z M 5,145 l 5,0 0,5 -5,0 z M 10,145 l 5,0 0,5 -5,0 z M 15,145 l 5,0 0,5 -5,0 z M 35,145 l 5,0 0,5 -5,0 z M 40,145 l 5,0 0,5 -5,0 z M 50,145 l 5,0 0,5 -5,0 z M 55,145 l 5,0 0,5 -5,0 z M 70,145 l 5,0 0,5 -5,0 z M 75,145 l 5,0 0,5 -5,0 z M 90,145 l 5,0 0,5 -5,0 z M 100,145 l 5,0 0,5 -5,0 z M 110,145 l 5,0 0,5 -5,0 z M 115,145 l 5,0 0,5 -5,0 z M 120,145 l 5,0 0,5 -5,0 z M 125,145 l 5,0 0,5 -5,0 z M 150,145 l 5,0 0,5 -5,0 z M 155,145 l 5,0 0,5 -5,0 z M 160,145 l 5,0 0,5 -5,0 z M 170,145 l 5,0 0,5 -5,0 z M 175,145 l 5,0 0,5 -5,0 z M 180,145 l 5,0 0,5 -5,0 z M 185,145 l 5,0 0,5 -5,0 z M 195,145 l 5,0 0,5 -5,0 z M 200,145 l 5,0 0,5 -5,0 z M 205,145 l 5,0 0,5 -5,0 z M 215,145 l 5,0 0,5 -5,0 z M 240,145 l 5,0 0,5 -5,0 z M 55,150 l 5,0 0,5 -5,0 z M 80,150 l 5,0 0,5 -5,0 z M 95,150 l 5,0 0,5 -5,0 z M 110,150 l 5,0 0,5 -5,0 z M 125,150 l 5,0 0,5 -5,0 z M 130,150 l 5,0 0,5 -5,0 z M 145,150 l 5,0 0,5 -5,0 z M 150,150 l 5,0 0,5 -5,0 z M 155,150 l 5,0 0,5 -5,0 z M 160,150 l 5,0 0,5 -5,0 z M 180,150 l 5,0 0,5 -5,0 z M 185,150 l 5,0 0,5 -5,0 z M 205,150 l 5,0 0,5 -5,0 z M 210,150 l 5,0 0,5 -5,0 z M 215,150 l 5,0 0,5 -5,0 z M 220,150 l 5,0 0,5 -5,0 z M 225,150 l 5,0 0,5 -5,0 z M 235,150 l 5,0 0,5 -5,0 z M 240,150 l 5,0 0,5 -5,0 z M 245,150 l 5,0 0,5 -5,0 z M 5,155 l 5,0 0,5 -5,0 z M 10,155 l 5,0 0,5 -5,0 z M 25,155 l 5,0 0,5 -5,0 z M 30,155 l 5,0 0,5 -5,0 z M 35,155 l 5,0 0,5 -5,0 z M 55,155 l 5,0 0,5 -5,0 z M 65,155 l 5,0 0,5 -5,0 z M 70,155 l 5,0 0,5 -5,0 z M 75,155 l 5,0 0,5 -5,0 z M 100,155 l 5,0 0,5 -5,0 z M 120,155 l 5,0 0,5 -5,0 z M 125,155 l 5,0 0,5 -5,0 z M 130,155 l 5,0 0,5 -5,0 z M 140,155 l 5,0 0,5 -5,0 z M 160,155 l 5,0 0,5 -5,0 z M 175,155 l 5,0 0,5 -5,0 z M 190,155 l 5,0 0,5 -5,0 z M 195,155 l 5,0 0,5 -5,0 z M 200,155 l 5,0 0,5 -5,0 z M 205,155 l 5,0 0,5 -5,0 z M 210,155 l 5,0 0,5 -5,0 z M 215,155 l 5,0 0,5 -5,0 z M 220,155 l 5,0 0,5 -5,0 z M 240,155 l 5,0 0,5 -5,0 z M 10,160 l 5,0 0,5 -5,0 z M 20,160 l 5,0 0,5 -5,0 z M 30,160 l 5,0 0,5 -5,0 z M 40,160 l 5,0 0,5 -5,0 z M 45,160 l 5,0 0,5 -5,0 z M 60,160 l 5,0 0,5 -5,0 z M 80,160 l 5,0 0,5 -5,0 z M 90,160 l 5,0 0,5 -5,0 z M 95,160 l 5,0 0,5 -5,0 z M 110,160 l 5,0 0,5 -5,0 z M 115,160 l 5,0 0,5 -5,0 z M 125,160 l 5,0 0,5 -5,0 z M 130,160 l 5,0 0,5 -5,0 z M 135,160 l 5,0 0,5 -5,0 z M 140,160 l 5,0 0,5 -5,0 z M 145,160 l 5,0 0,5 -5,0 z M 150,160 l 5,0 0,5 -5,0 z M 165,160 l 5,0 0,5 -5,0 z M 175,160 l 5,0 0,5 -5,0 z M 185,160 l 5,0 0,5 -5,0 z M 190,160 l 5,0 0,5 -5,0 z M 200,160 l 5,0 0,5 -5,0 z M 215,160 l 5,0 0,5 -5,0 z M 220,160 l 5,0 0,5 -5,0 z M 230,160 l 5,0 0,5 -5,0 z M 235,160 l 5,0 0,5 -5,0 z M 240,160 l 5,0 0,5 -5,0 z M 10,165 l 5,0 0,5 -5,0 z M 15,165 l 5,0 0,5 -5,0 z M 20,165 l 5,0 0,5 -5,0 z M 25,165 l 5,0 0,5 -5,0 z M 30,165 l 5,0 0,5 -5,0 z M 35,165 l 5,0 0,5 -5,0 z M 45,165 l 5,0 0,5 -5,0 z M 75,165 l 5,0 0,5 -5,0 z M 80,165 l 5,0 0,5 -5,0 z M 85,165 l 5,0 0,5 -5,0 z M 90,165 l 5,0 0,5 -5,0 z M 95,165 l 5,0 0,5 -5,0 z M 110,165 l 5,0 0,5 -5,0 z M 125,165 l 5,0 0,5 -5,0 z M 130,165 l 5,0 0,5 -5,0 z M 140,165 l 5,0 0,5 -5,0 z M 145,165 l 5,0 0,5 -5,0 z M 150,165 l 5,0 0,5 -5,0 z M 155,165 l 5,0 0,5 -5,0 z M 160,165 l 5,0 0,5 -5,0 z M 165,165 l 5,0 0,5 -5,0 z M 170,165 l 5,0 0,5 -5,0 z M 190,165 l 5,0 0,5 -5,0 z M 195,165 l 5,0 0,5 -5,0 z M 200,165 l 5,0 0,5 -5,0 z M 230,165 l 5,0 0,5 -5,0 z M 235,165 l 5,0 0,5 -5,0 z M 240,165 l 5,0 0,5 -5,0 z M 10,170 l 5,0 0,5 -5,0 z M 20,170 l 5,0 0,5 -5,0 z M 25,170 l 5,0 0,5 -5,0 z M 30,170 l 5,0 0,5 -5,0 z M 50,170 l 5,0 0,5 -5,0 z M 60,170 l 5,0 0,5 -5,0 z M 65,170 l 5,0 0,5 -5,0 z M 75,170 l 5,0 0,5 -5,0 z M 80,170 l 5,0 0,5 -5,0 z M 85,170 l 5,0 0,5 -5,0 z M 95,170 l 5,0 0,5 -5,0 z M 100,170 l 5,0 0,5 -5,0 z M 110,170 l 5,0 0,5 -5,0 z M 115,170 l 5,0 0,5 -5,0 z M 125,170 l 5,0 0,5 -5,0 z M 150,170 l 5,0 0,5 -5,0 z M 170,170 l 5,0 0,5 -5,0 z M 175,170 l 5,0 0,5 -5,0 z M 180,170 l 5,0 0,5 -5,0 z M 185,170 l 5,0 0,5 -5,0 z M 190,170 l 5,0 0,5 -5,0 z M 210,170 l 5,0 0,5 -5,0 z M 225,170 l 5,0 0,5 -5,0 z M 235,170 l 5,0 0,5 -5,0 z M 10,175 l 5,0 0,5 -5,0 z M 20,175 l 5,0 0,5 -5,0 z M 30,175 l 5,0 0,5 -5,0 z M 35,175 l 5,0 0,5 -5,0 z M 55,175 l 5,0 0,5 -5,0 z M 60,175 l 5,0 0,5 -5,0 z M 95,175 l 5,0 0,5 -5,0 z M 100,175 l 5,0 0,5 -5,0 z M 110,175 l 5,0 0,5 -5,0 z M 120,175 l 5,0 0,5 -5,0 z M 140,175 l 5,0 0,5 -5,0 z M 160,175 l 5,0 0,5 -5,0 z M 165,175 l 5,0 0,5 -5,0 z M 170,175 l 5,0 0,5 -5,0 z M 175,175 l 5,0 0,5 -5,0 z M 180,175 l 5,0 0,5 -5,0 z M 200,175 l 5,0 0,5 -5,0 z M 210,175 l 5,0 0,5 -5,0 z M 215,175 l 5,0 0,5 -5,0 z M 225,175 l 5,0 0,5 -5,0 z M 240,175 l 5,0 0,5 -5,0 z M 245,175 l 5,0 0,5 -5,0 z M 5,180 l 5,0 0,5 -5,0 z M 10,180 l 5,0 0,5 -5,0 z M 15,180 l 5,0 0,5 -5,0 z M 30,180 l 5,0 0,5 -5,0 z M 40,180 l 5,0 0,5 -5,0 z M 50,180 l 5,0 0,5 -5,0 z M 60,180 l 5,0 0,5 -5,0 z M 65,180 l 5,0 0,5 -5,0 z M 70,180 l 5,0 0,5 -5,0 z M 85,180 l 5,0 0,5 -5,0 z M 90,180 l 5,0 0,5 -5,0 z M 95,180 l 5,0 0,5 -5,0 z M 100,180 l 5,0 0,5 -5,0 z M 105,180 l 5,0 0,5 -5,0 z M 115,180 l 5,0 0,5 -5,0 z M 120,180 l 5,0 0,5 -5,0 z M 135,180 l 5,0 0,5 -5,0 z M 145,180 l 5,0 0,5 -5,0 z M 165,180 l 5,0 0,5 -5,0 z M 170,180 l 5,0 0,5 -5,0 z M 195,180 l 5,0 0,5 -5,0 z M 200,180 l 5,0 0,5 -5,0 z M 215,180 l 5,0 0,5 -5,0 z M 230,180 l 5,0 0,5 -5,0 z M 5,185 l 5,0 0,5 -5,0 z M 10,185 l 5,0 0,5 -5,0 z M 20,185 l 5,0 0,5 -5,0 z M 25,185 l 5,0 0,5 -5,0 z M 35,185 l 5,0 0,5 -5,0 z M 40,185 l 5,0 0,5 -5,0 z M 50,185 l 5,0 0,5 -5,0 z M 65,185 l 5,0 0,5 -5,0 z M 80,185 l 5,0 0,5 -5,0 z M 95,185 l 5,0 0,5 -5,0 z M 125,185 l 5,0 0,5 -5,0 z M 150,185 l 5,0 0,5 -5,0 z M 155,185 l 5,0 0,5 -5,0 z M 160,185 l 5,0 0,5 -5,0 z M 175,185 l 5,0 0,5 -5,0 z M 180,185 l 5,0 0,5 -5,0 z M 185,185 l 5,0 0,5 -5,0 z M 195,185 l 5,0 0,5 -5,0 z M 205,185 l 5,0 0,5 -5,0 z M 235,185 l 5,0 0,5 -5,0 z M 240,185 l 5,0 0,5 -5,0 z M 10,190 l 5,0 0,5 -5,0 z M 20,190 l 5,0 0,5 -5,0 z M 25,190 l 5,0 0,5 -5,0 z M 30,190 l 5,0 0,5 -5,0 z M 45,190 l 5,0 0,5 -5,0 z M 60,190 l 5,0 0,5 -5,0 z M 70,190 l 5,0 0,5 -5,0 z M 85,190 l 5,0 0,5 -5,0 z M 90,190 l 5,0 0,5 -5,0 z M 95,190 l 5,0 0,5 -5,0 z M 100,190 l 5,0 0,5 -5,0 z M 105,190 l 5,0 0,5 -5,0 z M 110,190 l 5,0 0,5 -5,0 z M 115,190 l 5,0 0,5 -5,0 z M 120,190 l 5,0 0,5 -5,0 z M 135,190 l 5,0 0,5 -5,0 z M 150,190 l 5,0 0,5 -5,0 z M 155,190 l 5,0 0,5 -5,0 z M 160,190 l 5,0 0,5 -5,0 z M 165,190 l 5,0 0,5 -5,0 z M 190,190 l 5,0 0,5 -5,0 z M 200,190 l 5,0 0,5 -5,0 z M 225,190 l 5,0 0,5 -5,0 z M 235,190 l 5,0 0,5 -5,0 z M 240,190 l 5,0 0,5 -5,0 z M 245,190 l 5,0 0,5 -5,0 z M 10,195 l 5,0 0,5 -5,0 z M 30,195 l 5,0 0,5 -5,0 z M 35,195 l 5,0 0,5 -5,0 z M 45,195 l 5,0 0,5 -5,0 z M 55,195 l 5,0 0,5 -5,0 z M 70,195 l 5,0 0,5 -5,0 z M 75,195 l 5,0 0,5 -5,0 z M 80,195 l 5,0 0,5 -5,0 z M 85,195 l 5,0 0,5 -5,0 z M 105,195 l 5,0 0,5 -5,0 z M 110,195 l 5,0 0,5 -5,0 z M 115,195 l 5,0 0,5 -5,0 z M 130,195 l 5,0 0,5 -5,0 z M 140,195 l 5,0 0,5 -5,0 z M 170,195 l 5,0 0,5 -5,0 z M 175,195 l 5,0 0,5 -5,0 z M 185,195 l 5,0 0,5 -5,0 z M 220,195 l 5,0 0,5 -5,0 z M 230,195 l 5,0 0,5 -5,0 z M 10,200 l 5,0 0,5 -5,0 z M 15,200 l 5,0 0,5 -5,0 z M 20,200 l 5,0 0,5 -5,0 z M 50,200 l 5,0 0,5 -5,0 z M 60,200 l 5,0 0,5 -5,0 z M 70,200 l 5,0 0,5 -5,0 z M 85,200 l 5,0 0,5 -5,0 z M 90,200 l 5,0 0,5 -5,0 z M 95,200 l 5,0 0,5 -5,0 z M 100,200 l 5,0 0,5 -5,0 z M 105,200 l 5,0 0,5 -5,0 z M 120,200 l 5,0 0,5 -5,0 z M 135,200 l 5,0 0,5 -5,0 z M 155,200 l 5,0 0,5 -5,0 z M 175,200 l 5,0 0,5 -5,0 z M 190,200 l 5,0 0,5 -5,0 z M 205,200 l 5,0 0,5 -5,0 z M 220,200 l 5,0 0,5 -5,0 z M 225,200 l 5,0 0,5 -5,0 z M 230,200 l 5,0 0,5 -5,0 z M 240,200 l 5,0 0,5 -5,0 z M 245,200 l 5,0 0,5 -5,0 z M 5,205 l 5,0 0,5 -5,0 z M 10,205 l 5,0 0,5 -5,0 z M 15,205 l 5,0 0,5 -5,0 z M 35,205 l 5,0 0,5 -5,0 z M 80,205 l 5,0 0,5 -5,0 z M 85,205 l 5,0 0,5 -5,0 z M 90,205 l 5,0 0,5 -5,0 z M 115,205 l 5,0 0,5 -5,0 z M 120,205 l 5,0 0,5 -5,0 z M 125,205 l 5,0 0,5 -5,0 z M 130,205 l 5,0 0,5 -5,0 z M 135,205 l 5,0 0,5 -5,0 z M 150,205 l 5,0 0,5 -5,0 z M 155,205 l 5,0 0,5 -5,0 z M 160,205 l 5,0 0,5 -5,0 z M 165,205 l 5,0 0,5 -5,0 z M 170,205 l 5,0 0,5 -5,0 z M 175,205 l 5,0 0,5 -5,0 z M 180,205 l 5,0 0,5 -5,0 z M 185,205 l 5,0 0,5 -5,0 z M 190,205 l 5,0 0,5 -5,0 z M 205,205 l 5,0 0,5 -5,0 z M 210,205 l 5,0 0,5 -5,0 z M 215,205 l 5,0 0,5 -5,0 z M 220,205 l 5,0 0,5 -5,0 z M 225,205 l 5,0 0,5 -5,0 z M 230,205 l 5,0 0,5 -5,0 z M 235,205 l 5,0 0,5 -5,0 z M 240,205 l 5,0 0,5 -5,0 z M 245,205 l 5,0 0,5 -5,0 z M 45,210 l 5,0 0,5 -5,0 z M 50,210 l 5,0 0,5 -5,0 z M 55,210 l 5,0 0,5 -5,0 z M 60,210 l 5,0 0,5 -5,0 z M 65,210 l 5,0 0,5 -5,0 z M 75,210 l 5,0 0,5 -5,0 z M 85,210 l 5,0 0,5 -5,0 z M 90,210 l 5,0 0,5 -5,0 z M 95,210 l 5,0 0,5 -5,0 z M 100,210 l 5,0 0,5 -5,0 z M 115,210 l 5,0 0,5 -5,0 z M 135,210 l 5,0 0,5 -5,0 z M 150,210 l 5,0 0,5 -5,0 z M 155,210 l 5,0 0,5 -5,0 z M 160,210 l 5,0 0,5 -5,0 z M 180,210 l 5,0 0,5 -5,0 z M 185,210 l 5,0 0,5 -5,0 z M 190,210 l 5,0 0,5 -5,0 z M 195,210 l 5,0 0,5 -5,0 z M 200,210 l 5,0 0,5 -5,0 z M 205,210 l 5,0 0,5 -5,0 z M 225,210 l 5,0 0,5 -5,0 z M 5,215 l 5,0 0,5 -5,0 z M 10,215 l 5,0 0,5 -5,0 z M 15,215 l 5,0 0,5 -5,0 z M 20,215 l 5,0 0,5 -5,0 z M 25,215 l 5,0 0,5 -5,0 z M 30,215 l 5,0 0,5 -5,0 z M 35,215 l 5,0 0,5 -5,0 z M 45,215 l 5,0 0,5 -5,0 z M 50,215 l 5,0 0,5 -5,0 z M 70,215 l 5,0 0,5 -5,0 z M 75,215 l 5,0 0,5 -5,0 z M 85,215 l 5,0 0,5 -5,0 z M 90,215 l 5,0 0,5 -5,0 z M 100,215 l 5,0 0,5 -5,0 z M 105,215 l 5,0 0,5 -5,0 z M 110,215 l 5,0 0,5 -5,0 z M 115,215 l 5,0 0,5 -5,0 z M 125,215 l 5,0 0,5 -5,0 z M 135,215 l 5,0 0,5 -5,0 z M 140,215 l 5,0 0,5 -5,0 z M 145,215 l 5,0 0,5 -5,0 z M 155,215 l 5,0 0,5 -5,0 z M 160,215 l 5,0 0,5 -5,0 z M 170,215 l 5,0 0,5 -5,0 z M 180,215 l 5,0 0,5 -5,0 z M 195,215 l 5,0 0,5 -5,0 z M 205,215 l 5,0 0,5 -5,0 z M 215,215 l 5,0 0,5 -5,0 z M 225,215 l 5,0 0,5 -5,0 z M 245,215 l 5,0 0,5 -5,0 z M 5,220 l 5,0 0,5 -5,0 z M 35,220 l 5,0 0,5 -5,0 z M 60,220 l 5,0 0,5 -5,0 z M 75,220 l 5,0 0,5 -5,0 z M 100,220 l 5,0 0,5 -5,0 z M 105,220 l 5,0 0,5 -5,0 z M 115,220 l 5,0 0,5 -5,0 z M 135,220 l 5,0 0,5 -5,0 z M 140,220 l 5,0 0,5 -5,0 z M 145,220 l 5,0 0,5 -5,0 z M 150,220 l 5,0 0,5 -5,0 z M 160,220 l 5,0 0,5 -5,0 z M 165,220 l 5,0 0,5 -5,0 z M 170,220 l 5,0 0,5 -5,0 z M 180,220 l 5,0 0,5 -5,0 z M 190,220 l 5,0 0,5 -5,0 z M 195,220 l 5,0 0,5 -5,0 z M 205,220 l 5,0 0,5 -5,0 z M 225,220 l 5,0 0,5 -5,0 z M 230,220 l 5,0 0,5 -5,0 z M 245,220 l 5,0 0,5 -5,0 z M 5,225 l 5,0 0,5 -5,0 z M 15,225 l 5,0 0,5 -5,0 z M 20,225 l 5,0 0,5 -5,0 z M 25,225 l 5,0 0,5 -5,0 z M 35,225 l 5,0 0,5 -5,0 z M 45,225 l 5,0 0,5 -5,0 z M 55,225 l 5,0 0,5 -5,0 z M 60,225 l 5,0 0,5 -5,0 z M 65,225 l 5,0 0,5 -5,0 z M 70,225 l 5,0 0,5 -5,0 z M 75,225 l 5,0 0,5 -5,0 z M 90,225 l 5,0 0,5 -5,0 z M 100,225 l 5,0 0,5 -5,0 z M 115,225 l 5,0 0,5 -5,0 z M 120,225 l 5,0 0,5 -5,0 z M 125,225 l 5,0 0,5 -5,0 z M 130,225 l 5,0 0,5 -5,0 z M 135,225 l 5,0 0,5 -5,0 z M 160,225 l 5,0 0,5 -5,0 z M 180,225 l 5,0 0,5 -5,0 z M 185,225 l 5,0 0,5 -5,0 z M 190,225 l 5,0 0,5 -5,0 z M 200,225 l 5,0 0,5 -5,0 z M 205,225 l 5,0 0,5 -5,0 z M 210,225 l 5,0 0,5 -5,0 z M 215,225 l 5,0 0,5 -5,0 z M 220,225 l 5,0 0,5 -5,0 z M 225,225 l 5,0 0,5 -5,0 z M 230,225 l 5,0 0,5 -5,0 z M 240,225 l 5,0 0,5 -5,0 z M 5,230 l 5,0 0,5 -5,0 z M 15,230 l 5,0 0,5 -5,0 z M 20,230 l 5,0 0,5 -5,0 z M 25,230 l 5,0 0,5 -5,0 z M 35,230 l 5,0 0,5 -5,0 z M 45,230 l 5,0 0,5 -5,0 z M 65,230 l 5,0 0,5 -5,0 z M 80,230 l 5,0 0,5 -5,0 z M 95,230 l 5,0 0,5 -5,0 z M 110,230 l 5,0 0,5 -5,0 z M 135,230 l 5,0 0,5 -5,0 z M 145,230 l 5,0 0,5 -5,0 z M 150,230 l 5,0 0,5 -5,0 z M 155,230 l 5,0 0,5 -5,0 z M 160,230 l 5,0 0,5 -5,0 z M 165,230 l 5,0 0,5 -5,0 z M 180,230 l 5,0 0,5 -5,0 z M 185,230 l 5,0 0,5 -5,0 z M 190,230 l 5,0 0,5 -5,0 z M 200,230 l 5,0 0,5 -5,0 z M 215,230 l 5,0 0,5 -5,0 z M 235,230 l 5,0 0,5 -5,0 z M 245,230 l 5,0 0,5 -5,0 z M 5,235 l 5,0 0,5 -5,0 z M 15,235 l 5,0 0,5 -5,0 z M 20,235 l 5,0 0,5 -5,0 z M 25,235 l 5,0 0,5 -5,0 z M 35,235 l 5,0 0,5 -5,0 z M 45,235 l 5,0 0,5 -5,0 z M 55,235 l 5,0 0,5 -5,0 z M 60,235 l 5,0 0,5 -5,0 z M 65,235 l 5,0 0,5 -5,0 z M 70,235 l 5,0 0,5 -5,0 z M 75,235 l 5,0 0,5 -5,0 z M 100,235 l 5,0 0,5 -5,0 z M 110,235 l 5,0 0,5 -5,0 z M 115,235 l 5,0 0,5 -5,0 z M 120,235 l 5,0 0,5 -5,0 z M 125,235 l 5,0 0,5 -5,0 z M 140,235 l 5,0 0,5 -5,0 z M 150,235 l 5,0 0,5 -5,0 z M 175,235 l 5,0 0,5 -5,0 z M 185,235 l 5,0 0,5 -5,0 z M 195,235 l 5,0 0,5 -5,0 z M 220,235 l 5,0 0,5 -5,0 z M 245,235 l 5,0 0,5 -5,0 z M 5,240 l 5,0 0,5 -5,0 z M 35,240 l 5,0 0,5 -5,0 z M 45,240 l 5,0 0,5 -5,0 z M 50,240 l 5,0 0,5 -5,0 z M 55,240 l 5,0 0,5 -5,0 z M 65,240 l 5,0 0,5 -5,0 z M 70,240 l 5,0 0,5 -5,0 z M 80,240 l 5,0 0,5 -5,0 z M 95,240 l 5,0 0,5 -5,0 z M 110,240 l 5,0 0,5 -5,0 z M 120,240 l 5,0 0,5 -5,0 z M 125,240 l 5,0 0,5 -5,0 z M 140,240 l 5,0 0,5 -5,0 z M 150,240 l 5,0 0,5 -5,0 z M 155,240 l 5,0 0,5 -5,0 z M 165,240 l 5,0 0,5 -5,0 z M 175,240 l 5,0 0,5 -5,0 z M 190,240 l 5,0 0,5 -5,0 z M 200,240 l 5,0 0,5 -5,0 z M 205,240 l 5,0 0,5 -5,0 z M 230,240 l 5,0 0,5 -5,0 z M 5,245 l 5,0 0,5 -5,0 z M 10,245 l 5,0 0,5 -5,0 z M 15,245 l 5,0 0,5 -5,0 z M 20,245 l 5,0 0,5 -5,0 z M 25,245 l 5,0 0,5 -5,0 z M 30,245 l 5,0 0,5 -5,0 z M 35,245 l 5,0 0,5 -5,0 z M 45,245 l 5,0 0,5 -5,0 z M 55,245 l 5,0 0,5 -5,0 z M 65,245 l 5,0 0,5 -5,0 z M 70,245 l 5,0 0,5 -5,0 z M 75,245 l 5,0 0,5 -5,0 z M 80,245 l 5,0 0,5 -5,0 z M 140,245 l 5,0 0,5 -5,0 z M 155,245 l 5,0 0,5 -5,0 z M 165,245 l 5,0 0,5 -5,0 z M 180,245 l 5,0 0,5 -5,0 z M 190,245 l 5,0 0,5 -5,0 z M 200,245 l 5,0 0,5 -5,0 z M 205,245 l 5,0 0,5 -5,0 z M 215,245 l 5,0 0,5 -5,0 z M 230,245 l 5,0 0,5 -5,0 z M 235,245 l 5,0 0,5 -5,0 z M 245,245 l 5,0 0,5 -5,0 z " />
	</g>
</svg>
